<svg width="67" height="60" viewBox="0 0 67 60" fill="none" xmlns="http://www.w3.org/2000/svg">
<path d="M23.6367 0.0646731C26.7513 0.0574129 29.8645 0.0414404 32.9792 0.0428925C38.4113 0.0443445 43.8477 -0.0906956 49.2726 0.111139C53.7274 0.276672 57.8106 1.76211 61.0893 4.93338C63.2877 7.05917 64.7252 9.65398 65.5297 12.6278C66.0132 14.4138 66.2789 16.2288 66.2702 18.0439C66.2542 21.5666 65.6516 25.0064 63.6696 28.0151C62.0346 30.4966 59.7708 32.2725 56.9916 33.376C56.1436 33.7129 55.3073 34.0774 54.4084 34.2545C53.8 34.375 53.7492 34.6829 54.0106 35.1795C54.9007 36.8711 55.7835 38.5671 56.6562 40.2674C58.3246 43.5171 59.9785 46.7755 61.6483 50.0252C63.0176 52.6911 64.4 55.3498 65.7809 58.0085C66.1293 58.6794 66.1177 58.72 65.383 58.72C60.144 58.7229 54.905 58.7171 49.6661 58.7287C49.2261 58.7287 48.9865 58.6155 48.7963 58.1784C47.578 55.3919 46.3133 52.6243 45.0776 49.8466C43.7533 46.8699 42.445 43.8859 41.1266 40.9063C40.8449 40.2718 40.5487 39.6431 40.2597 39.0114C40.1218 38.5555 39.9287 38.1068 39.8561 37.6407C39.1315 33.0217 36.5163 29.7474 32.5944 27.3994C30.1898 25.959 27.4991 25.368 24.7983 24.8264C24.399 24.7465 23.9852 24.7523 23.6294 24.5186C23.6251 20.2713 23.6193 16.0241 23.6149 11.7769C23.6222 7.87377 23.6294 3.97067 23.6367 0.0661252V0.0646731ZM38.7002 18.8701C38.7002 21.0409 38.7118 23.2132 38.6915 25.384C38.6872 25.9067 38.8425 26.1144 39.3943 26.0955C41.0787 26.0403 42.7601 26.1376 44.4416 25.8414C47.6985 25.2693 50.2149 23.3569 50.6404 20.222C50.9874 17.6664 50.5039 15.3968 48.4362 13.6602C47.2804 12.6888 45.8907 12.2517 44.4445 11.9584C42.7979 11.6244 41.1266 11.8277 39.4684 11.7478C38.8803 11.7188 38.6741 11.88 38.6857 12.5014C38.7235 14.6243 38.7002 16.7472 38.7002 18.8701Z" fill="#F8F8FF"/>
<path d="M23.6294 24.5169C23.9851 24.7507 24.3989 24.7449 24.7982 24.8248C27.4991 25.3664 30.1897 25.9574 32.5943 27.3978C36.5162 29.7472 39.1299 33.0201 39.856 37.6391C39.9286 38.1052 40.1231 38.5538 40.2596 39.0098C40.0258 39.2276 40.1202 39.5107 40.1304 39.762C40.2059 41.5944 40.1493 43.4313 39.7993 45.2231C39.5075 46.7114 38.9862 48.1461 38.3168 49.5371C37.6242 50.9761 36.7181 52.2336 35.6741 53.4126C34.3861 54.8661 32.8426 55.9958 31.1553 56.9353C30.0706 57.5393 28.9424 58.0693 27.7691 58.4672C26.3287 58.9551 24.8447 59.3079 23.3418 59.5577C21.2741 59.9004 19.1905 60.0281 17.0966 59.9947C15.2235 59.9657 13.3474 59.8263 11.5338 59.3791C9.80298 58.9536 8.13168 58.3351 6.51701 57.5234C4.45946 56.491 2.56309 55.2146 0.612992 54.0167C0.271762 53.8076 0.273214 53.613 0.437295 53.3153C1.23302 51.8778 2.02148 50.4374 2.81429 48.9999C3.71311 47.3707 4.61047 45.7415 5.51219 44.1137C5.82583 43.5474 6.1569 42.9884 6.47054 42.4221C6.63898 42.1186 6.81758 42.168 7.04991 42.3524C8.38143 43.4066 9.73909 44.4361 11.2405 45.2274C12.7521 46.0232 14.2854 46.7869 15.9437 47.2748C17.3522 47.6887 18.7534 48.0618 20.2359 47.9747C22.2543 47.8557 24.29 46.437 24.8345 44.3678C25.6317 41.3389 24.0809 39.0316 21.4324 37.9091C18.6546 36.7315 15.7709 35.8603 12.9118 34.9165C11.1069 34.3211 9.26282 33.8333 7.55812 32.9519C5.1666 31.7147 3.08582 30.1451 1.90386 27.6432C1.45082 26.6834 1.11395 25.6757 0.826443 24.6375C0.151242 22.2038 -0.0680168 19.7353 0.0176538 17.2393C0.103324 14.7374 0.592664 12.3154 1.64394 10.0037C2.69522 7.69354 4.12404 5.68972 6.06252 4.06924C7.61475 2.77111 9.40658 1.89698 11.3073 1.18693C15.3251 -0.311582 19.4939 0.0732099 23.6366 0.0644977C23.6294 3.96759 23.6221 7.87214 23.6148 11.7752C21.8898 11.6823 20.2141 11.903 18.5864 12.4998C17.1692 13.0196 15.9597 13.8328 15.1683 15.1208C14.3871 16.3913 14.0459 17.7344 14.4394 19.2954C14.7966 20.7111 15.5037 21.7029 16.7655 22.3577C18.1697 23.0867 19.6827 23.5165 21.187 23.9724C21.9885 24.2164 22.7799 24.4952 23.6308 24.5155L23.6294 24.5169Z" fill="#F8F8FF"/>
</svg>
